<?xml version="1.0" encoding="UTF-8" standalone="no"?>
<!-- Created with Inkscape (http://www.inkscape.org/) -->

<svg
   version="1.1"
   id="svg511"
   width="512"
   height="512"
   viewBox="0 0 512 512"
   sodipodi:docname="broken.svg"
   inkscape:version="1.2.2 (732a01da63, 2022-12-09, custom)"
   xmlns:inkscape="http://www.inkscape.org/namespaces/inkscape"
   xmlns:sodipodi="http://sodipodi.sourceforge.net/DTD/sodipodi-0.dtd"
   xmlns="http://www.w3.org/2000/svg"
   xmlns:svg="http://www.w3.org/2000/svg">
  <defs
     id="defs515" />
  <sodipodi:namedview
     id="namedview513"
     pagecolor="#ffffff"
     bordercolor="#000000"
     borderopacity="0.25"
     inkscape:showpageshadow="2"
     inkscape:pageopacity="0.0"
     inkscape:pagecheckerboard="0"
     inkscape:deskcolor="#d1d1d1"
     showgrid="false"
     inkscape:zoom="1.3085938"
     inkscape:cx="213.20597"
     inkscape:cy="256.38209"
     inkscape:window-width="1600"
     inkscape:window-height="836"
     inkscape:window-x="0"
     inkscape:window-y="27"
     inkscape:window-maximized="1"
     inkscape:current-layer="g517" />
  <g
     inkscape:groupmode="layer"
     inkscape:label="Image"
     id="g517">
    <path
       style="fill:#000000"
       d="M 106.86078,502.09144 C 104.61922,500.27927 104.47475,499.43515 104,485.37683 l -0.5,-14.80606 -45.929409,-7.64784 C 16.088279,456.0156 11.464903,455.05741 9.8205906,453.02677 7.517705,450.18282 7.4868587,445.84423 9.75,443.09807 11.162264,441.38439 26.525141,437.0207 89.353779,420.48729 L 167.20756,400 H 183.60378 200 v 8 8 h -15.57294 -15.57294 l -51.67706,13.57718 C 88.754677,437.04462 63.025,443.8755 60,444.75691 l -5.5,1.60255 30.929171,5.18243 c 27.456079,4.60048 31.133639,5.43492 32.749999,7.43105 1.51205,1.86729 1.82083,4.09588 1.82083,13.14142 v 10.89279 l 26.99286,-13.50358 C 161.83893,462.07661 174.89521,456 176.00681,456 c 1.70932,0 38.47605,20.23998 50.22332,27.64779 2.05157,1.29371 4.18444,2.35221 4.7397,2.35221 0.55527,0 9.37348,-6.75 19.59603,-15 11.28044,-9.10377 19.44684,-15 20.77529,-15 1.20387,0 18.98125,5.60195 39.50529,12.44877 35.46575,11.83138 37.22953,12.31493 35.56377,9.75 -0.96397,-1.48432 -5.50062,-8.32109 -10.08144,-15.19283 C 330.84575,454.78082 328,449.55471 328,447.71049 328,444.42252 331.97128,440 334.92377,440 c 1.48256,0 121.07098,35.19829 131.07623,38.57948 0.825,0.2788 -12.67232,-13.68753 -29.99405,-31.03628 L 404.51191,416 H 394.25595 384 v -8 -8 h 13.73797 13.73797 l 46.26203,46.26203 C 499.96791,488.49197 504,492.81024 504,495.80749 504,499.60165 500.25898,504 497.03185,504 c -1.61813,0 -135.37819,-39.66073 -140.87847,-41.77138 -0.75389,-0.2893 3.40319,6.62622 9.23795,15.36782 C 372.56017,488.33673 376,494.39826 376,496.29059 376,499.71268 371.98672,504 368.78336,504 c -1.26915,0 -23.19266,-6.96533 -48.7189,-15.4785 -26.90496,-8.97299 -46.86381,-15.1316 -47.4879,-14.65312 -0.59211,0.45396 -9.33972,7.41929 -19.43915,15.4785 C 240.95054,499.07186 233.96543,504 232.36822,504 c -1.32364,0 -14.57536,-6.96271 -29.44828,-15.47268 l -27.04166,-15.47269 -30.93289,15.47269 C 127.9323,497.03729 112.93454,504 111.61703,504 c -1.3175,0 -3.45781,-0.85885 -4.75625,-1.90856 z m 179.47397,-71.11917 c -8.31832,-1.50001 -20.65783,-6.43652 -28.00883,-11.20516 C 248.48287,413.38188 59.102927,230.56231 53.284038,221.82816 36.142324,196.09845 35.735684,164.48433 52.215116,138.72506 56.843902,131.48973 155.46968,31.895734 166,23.823138 180.12506,12.994801 193.38724,8.6082098 212,8.6082098 c 19.22941,0 32.7725,4.6761662 47.20384,16.2985712 4.01289,3.231815 47.86695,46.537396 97.45346,96.234619 95.62909,95.8426 96.31422,96.59237 101.97347,111.59516 6.98666,18.52179 6.97339,37.03989 -0.0399,55.63284 -3.71803,9.85688 -8.62631,17.4284 -17.40299,26.84585 -39.51555,42.40053 -89.47429,95.08755 -93.35733,98.45567 -12.67849,10.99719 -28.69672,17.25552 -45.70518,17.85702 -5.84396,0.20667 -12.94975,-0.0434 -15.79064,-0.55567 z m 26.92436,-16.91066 c 15.00073,-3.83654 20.61213,-7.86844 40.6891,-29.23585 l 15.2356,-16.21487 -5.97335,-1.21846 c -3.28534,-0.67015 -7.4685,-1.99163 -9.2959,-2.93661 l -3.32256,-1.71817 -15.046,15.6065 c -18.47374,19.16193 -21.81385,21.11536 -36.14682,21.14012 C 283.44648,399.51184 288.66476,403.80395 194.25316,313 74.042259,197.38257 78.74975,202.06206 75.607512,195.06022 70.670553,184.05921 71.290317,171.10353 77.23686,161 79.758262,156.71599 184.87597,50.982716 190.58292,46.990193 195.96578,43.224403 205.74667,40 211.78695,40 c 6.35085,0 14.60614,2.470147 20.21305,6.048148 2.475,1.579398 47.06201,45.527182 99.08225,97.661742 89.30751,89.50379 94.74358,95.15261 97.47527,101.29011 2.48628,5.58612 2.89651,7.76833 2.91776,15.52103 0.037,13.50212 -2.37614,17.73345 -22.2375,38.99245 L 393.36801,316.5 l 2.0008,3.40882 c 1.10044,1.87484 2.73463,6.0896 3.63152,9.36612 l 1.63073,5.95731 17.44506,-18.52227 c 10.16318,-10.79073 19.01701,-21.1703 21.21095,-24.86612 C 449.8704,274.01559 450.64495,251.875 441.34564,233 437.79448,225.79213 433.9718,221.81377 343.20565,130.86312 270.23743,57.746559 247.36672,35.398594 242.63038,32.586641 224.94518,22.086981 203.6699,21.394399 184.74642,30.702322 c -6.78015,3.334964 -10.82741,7.142935 -62.8998,59.180993 L 66.193247,145.5 62.165461,154 c -5.923251,12.50008 -7.461618,23.58663 -5.073934,36.56634 1.447575,7.86918 6.901196,19.48691 12.119166,25.81719 5.731657,6.95347 189.551607,184.07131 195.529837,188.40078 13.91505,10.07737 31.92534,13.52114 48.51858,9.2773 z m -3.23259,-33.27815 c 2.08777,-1.2559 9.59579,-8.53098 16.68448,-16.16684 l 12.88853,-13.88337 -1.9069,-5.61663 c -4.85831,-14.30973 2.1441,-30.97561 15.82775,-37.67039 6.9742,-3.41216 16.46608,-4.32032 22.75576,-2.17721 l 4.47997,1.52648 15.37195,-16.49465 c 15.78641,-16.9394 19.84021,-22.92221 19.8535,-29.30085 0.0204,-9.77199 4.52517,-4.82761 -96.8066,-106.25245 -53.72131,-53.77064 -96.13452,-95.449538 -98.06195,-96.364163 -5.20485,-2.469864 -10.35492,-2.795917 -15.76726,-0.998228 -4.38984,1.458071 -10.35319,7.110071 -59.99956,56.866911 -44.46136,44.56029 -55.363878,55.99999 -56.358716,59.1356 -1.641574,5.17403 -0.618266,13.09025 2.234567,17.28642 2.963802,4.3594 175.909729,170.52484 176.686379,169.75925 0.32537,-0.32073 1.29674,-5.50796 2.15861,-11.52718 l 1.56702,-10.94403 -7.81545,-11.73107 c -4.55143,-6.83174 -7.8161,-12.77834 -7.81702,-14.23869 -9e-4,-1.42476 2.80603,-6.70612 6.5,-12.23007 l 6.50159,-9.72244 -9.96995,-6.46981 c -6.93531,-4.50053 -10.15649,-7.21303 -10.58281,-8.91159 -0.545,-2.17147 6.84023,-42.28243 7.99826,-43.44046 0.43916,-0.43917 13.37403,1.66937 14.66768,2.39101 0.33899,0.1891 -0.89851,7.85943 -2.75,17.04519 -1.85149,9.18575 -3.36054,16.95886 -3.35343,17.27358 0.007,0.31472 3.34625,2.7408 7.42033,5.39129 l 7.40742,4.81907 11.07967,-8.30272 C 297.01415,265.26892 302,261.04725 302,260.45394 c 0,-0.59332 -1.35,-5.07259 -3,-9.95394 -1.65,-4.88135 -3,-9.84435 -3,-11.02889 C 296,237.33339 320.27684,204 321.83375,204 c 0.67558,0 10.30537,6.80579 11.9335,8.43392 0.28371,0.28371 -4.14195,6.71464 -9.83479,14.29096 -5.69285,7.57632 -10.33862,14.45012 -10.32394,15.27512 0.0147,0.825 1.5279,6.03145 3.36271,11.56989 2.18292,6.58928 3.11332,10.95711 2.69175,12.63676 -0.45912,1.82928 -5.39748,6.11947 -17.18578,14.93011 -15.76739,11.78464 -16.82713,12.7963 -22.64374,21.61664 l -6.1022,9.2534 7.29632,11.03491 7.29632,11.03492 -2.66294,18.71168 c -3.38532,23.78766 -3.38948,23.55675 0.47411,26.30787 7.56237,5.38488 16.67486,6.02843 23.89145,1.68728 z m 64.30229,-30.14749 c 10.27462,-4.293 12.77936,-17.7631 4.78884,-25.75362 -11.2351,-11.23509 -29.64576,-1.17188 -26.68915,14.58821 1.76619,9.41462 12.72217,15.00029 21.90031,11.16541 z"
       id="path521" />
  </g>
</svg>
