<?xml version="1.0" encoding="UTF-8" standalone="no"?>
<!-- Created with Inkscape (http://www.inkscape.org/) -->

<svg
   version="1.1"
   id="svg364"
   width="630.15387"
   height="630.15387"
   viewBox="0 0 630.15387 630.15387"
   sodipodi:docname="curva.svg"
   inkscape:version="1.2.2 (732a01da63, 2022-12-09, custom)"
   xmlns:inkscape="http://www.inkscape.org/namespaces/inkscape"
   xmlns:sodipodi="http://sodipodi.sourceforge.net/DTD/sodipodi-0.dtd"
   xmlns="http://www.w3.org/2000/svg"
   xmlns:svg="http://www.w3.org/2000/svg">
  <defs
     id="defs368" />
  <sodipodi:namedview
     id="namedview366"
     pagecolor="#ffffff"
     bordercolor="#000000"
     borderopacity="0.25"
     inkscape:showpageshadow="2"
     inkscape:pageopacity="0.0"
     inkscape:pagecheckerboard="0"
     inkscape:deskcolor="#d1d1d1"
     showgrid="false"
     inkscape:zoom="1.0632324"
     inkscape:cx="262.40736"
     inkscape:cy="315.5472"
     inkscape:window-width="1600"
     inkscape:window-height="836"
     inkscape:window-x="0"
     inkscape:window-y="27"
     inkscape:window-maximized="1"
     inkscape:current-layer="g370" />
  <g
     inkscape:groupmode="layer"
     inkscape:label="Image"
     id="g370">
    <path
       style="fill:#000000;stroke-width:1.23077"
       d="m 20.923078,507.07694 v -112 l 27.384616,-0.005 c 15.061539,-0.002 34.446155,-0.36513 43.076925,-0.80531 l 15.692311,-0.8004 v 112.8054 112.80532 H 64.000002 20.923078 Z m 171.378472,-6.37891 0.31384,-118.37891 20.30769,-4.67056 c 11.16924,-2.5688 29.16924,-7.23673 40.00001,-10.37316 10.83077,-3.13643 20.93846,-5.98259 22.46154,-6.32479 l 2.76923,-0.62217 V 489.70269 619.07695 H 235.07078 191.9877 Z M 363.07694,472.73519 V 326.39345 l 20.41967,-10.77867 c 17.53904,-9.25812 50.13761,-28.18868 61.11879,-35.49276 l 3.38462,-2.25126 v 170.60309 170.6031 h -42.46154 -42.46154 z m 171.18483,-57.65825 0.1079,-204.00001 42.35364,-41.71291 42.35364,-41.71293 V 373.36403 619.07695 H 576.61541 534.15387 L 534.2618,415.07694 Z M 0,320.6154 v -10.46154 l 28.000001,-0.007 c 74.165279,-0.0176 126.795259,-5.86275 183.441899,-20.37279 94.46963,-24.19837 182.26723,-70.29943 257.48119,-135.19909 7.1077,-6.133 33.84769,-31.89967 59.4222,-57.259263 l 46.4991,-46.108359 -9.49796,-9.553997 c -6.53634,-6.574902 -8.94664,-9.746923 -7.72988,-10.172715 5.4281,-1.899497 71.65454,-20.457333 71.91717,-20.152481 0.17272,0.200493 -4.41351,16.878705 -10.19164,37.062692 l -10.50569,36.698159 -9.65292,-9.596303 -9.65291,-9.596303 -48.30373,48.07728 c -46.93202,46.71199 -61.86162,60.50485 -85.54207,79.02889 -66.45263,51.98257 -146.68912,92.2127 -228.60783,114.62271 -62.63047,17.13343 -114.56298,23.45204 -192.751922,23.45204 H 0 Z"
       id="path374" />
  </g>
</svg>
