<?xml version="1.0" encoding="UTF-8" standalone="no"?>
<!-- Generator: Adobe Illustrator 17.0.0, SVG Export Plug-In . SVG Version: 6.00 Build 0)  -->

<svg
   version="1.1"
   id="Layer_1"
   x="0px"
   y="0px"
   width="100px"
   height="100px"
   viewBox="0 0 100 100"
   enable-background="new 0 0 100 100"
   xml:space="preserve"
   sodipodi:docname="lupa.svg"
   inkscape:version="1.2.2 (732a01da63, 2022-12-09, custom)"
   xmlns:inkscape="http://www.inkscape.org/namespaces/inkscape"
   xmlns:sodipodi="http://sodipodi.sourceforge.net/DTD/sodipodi-0.dtd"
   xmlns="http://www.w3.org/2000/svg"
   xmlns:svg="http://www.w3.org/2000/svg"><defs
   id="defs588" /><sodipodi:namedview
   id="namedview586"
   pagecolor="#ffffff"
   bordercolor="#000000"
   borderopacity="0.25"
   inkscape:showpageshadow="2"
   inkscape:pageopacity="0.0"
   inkscape:pagecheckerboard="0"
   inkscape:deskcolor="#d1d1d1"
   showgrid="false"
   inkscape:zoom="3.35"
   inkscape:cx="41.791045"
   inkscape:cy="50.298507"
   inkscape:window-width="1600"
   inkscape:window-height="836"
   inkscape:window-x="0"
   inkscape:window-y="27"
   inkscape:window-maximized="1"
   inkscape:current-layer="Layer_1" />
<g
   id="g583"
   transform="matrix(-1.1737858,0,0,1.1740394,108.5018,-7.1667493)">
	<path
   d="m 56.774,10.391 c -17.679,0 -32.001,14.329 -32.001,32 0,6.044 1.676,11.695 4.588,16.517 L 13.846,74.423 13.9,74.477 c -1.656,1.585 -2.673,3.835 -2.673,6.378 -10e-4,4.913 3.913,8.755 8.821,8.754 2.507,-10e-4 4.749,-1.004 6.349,-2.636 l 0.039,0.039 16.008,-16.009 c 4.312,2.163 9.176,3.388 14.33,3.388 17.68,0 31.999,-14.327 31.999,-32 0,-17.671 -14.32,-32 -31.999,-32 z m 0.194,51.417 c -11.05,0 -20.001,-8.954 -20.001,-20 0,-11.044 8.951,-20 20.001,-20 11.05,0 19.999,8.955 19.999,20 0.001,11.046 -8.949,20 -19.999,20 z"
   id="path581" />
</g>
</svg>
