<?xml version="1.0" encoding="UTF-8" standalone="no"?>
<!-- Created with Inkscape (http://www.inkscape.org/) -->

<svg
   version="1.1"
   id="svg414"
   width="512"
   height="512"
   viewBox="0 0 512 512"
   sodipodi:docname="new.svg"
   inkscape:version="1.2.2 (732a01da63, 2022-12-09, custom)"
   xmlns:inkscape="http://www.inkscape.org/namespaces/inkscape"
   xmlns:sodipodi="http://sodipodi.sourceforge.net/DTD/sodipodi-0.dtd"
   xmlns="http://www.w3.org/2000/svg"
   xmlns:svg="http://www.w3.org/2000/svg">
  <defs
     id="defs418" />
  <sodipodi:namedview
     id="namedview416"
     pagecolor="#ffffff"
     bordercolor="#000000"
     borderopacity="0.25"
     inkscape:showpageshadow="2"
     inkscape:pageopacity="0.0"
     inkscape:pagecheckerboard="0"
     inkscape:deskcolor="#d1d1d1"
     showgrid="false"
     inkscape:zoom="1.3085938"
     inkscape:cx="213.20597"
     inkscape:cy="256.38209"
     inkscape:window-width="1600"
     inkscape:window-height="836"
     inkscape:window-x="0"
     inkscape:window-y="27"
     inkscape:window-maximized="1"
     inkscape:current-layer="g420" />
  <g
     inkscape:groupmode="layer"
     inkscape:label="Image"
     id="g420">
    <path
       style="fill:#000000"
       d="M 176.16354,487.44409 C 163.41545,480.97228 157,463.2649 157,434.55051 c 0,-20.03407 -2.61719,-26.60089 -12.42114,-31.16603 -6.90312,-3.2144 -13.14817,-3.05698 -25.13777,0.63365 -32.068358,9.87126 -51.060586,9.03741 -61.388086,-2.69525 -11.067958,-12.57387 -6.466066,-32.52783 14.028955,-60.83003 9.976716,-13.77716 12.050125,-21.3933 7.990458,-29.3509 C 78.537036,308.13235 70.972247,300 69.708075,300 c -2.570036,0 -30.78745,-10.94531 -36.483223,-14.15156 -9.076098,-5.10908 -17.508699,-13.05433 -20.238548,-19.06888 -2.907553,-6.40608 -2.64931,-15.05639 0.64696,-21.67114 5.002711,-10.03914 21.829649,-20.88117 43.478223,-28.01417 12.06984,-3.97689 18.087845,-7.76227 21.90199,-13.77655 5.581905,-8.80175 4.014669,-15.49253 -7.613548,-32.50345 -8.175833,-11.96042 -15.408821,-26.19724 -17.277229,-34.00707 -1.980236,-8.27727 -1.436957,-16.78386 1.440721,-22.55861 7.580332,-15.21174 28.523562,-17.220528 64.547419,-6.19112 14.45202,4.42477 22.37132,3.64979 29.23074,-2.8605 5.88992,-5.590133 6.89215,-9.175976 7.74121,-27.69695 0.8987,-19.603708 2.62398,-29.133144 6.95331,-38.405936 5.80262,-12.428374 13.02189,-17.542501 23.89619,-16.928048 8.20087,0.463391 15.08995,3.673507 24.06771,11.21488 5.87962,4.938918 9.2171,8.759247 23.25472,26.619104 2.37761,3.025 6.49382,6.9625 9.14712,8.75 4.09456,2.758458 5.72058,3.25 10.75101,3.25 9.84206,0 14.80681,-3.622716 26.03855,-19 10.88811,-14.906837 25.32533,-27.382383 34.7023,-29.987097 10.07954,-2.799871 20.39749,-0.105337 26.14161,6.826889 8.0744,9.744478 10.86694,20.564636 11.80326,45.733655 0.65841,17.698687 0.89195,19.427896 3.24025,23.991076 3.37243,6.553267 9.87634,10.664207 17.74861,11.218387 4.43055,0.3119 8.20485,-0.37085 17.23808,-3.11826 30.48025,-9.270424 49.55685,-8.806991 59.81699,1.45315 4.26332,4.26331 7.1175,11.24237 7.1175,17.40374 0,10.65877 -7.70781,27.98948 -19.60029,44.07052 -10.17263,13.75544 -12.54373,22.28499 -8.4342,30.34033 3.52557,6.9107 9.0552,10.57596 22.9208,15.19286 31.36668,10.44431 46.15073,23.05666 46.09173,39.32109 -0.0289,7.95989 -2.37192,12.90087 -9.34701,19.71091 -6.75322,6.59342 -19.19523,13.38026 -34.61018,18.87908 -13.53316,4.82755 -17.74167,6.9405 -21.15669,10.62209 -8.78897,9.475 -7.73953,18.87506 3.90292,34.95953 17.22345,23.79482 23.16468,44.09934 16.69981,57.07265 -7.48862,15.02771 -29.21625,17.18734 -64.22589,6.38377 -14.7908,-4.56427 -22.66366,-3.83808 -29.58258,2.72868 -5.88992,5.59013 -6.89215,9.17598 -7.74121,27.69695 -0.8987,19.60371 -2.62398,29.13314 -6.95331,38.40594 -5.41049,11.58849 -12.64676,17.02994 -22.70317,17.0721 -13.0611,0.0547 -28.59968,-11.11544 -43.07826,-30.96757 C 270.17225,442.91392 264.93911,439 255.76438,439 c -10.01067,0 -14.69341,3.5952 -27.16799,20.85834 -8.2779,11.45551 -20.22262,22.60387 -28.23659,26.35407 -9.4041,4.4007 -17.17479,4.79626 -24.19626,1.23168 z m 18.35127,-18.53776 c 5.52514,-2.90271 14.17761,-11.61291 21.12788,-21.26884 3.22152,-4.47562 8.55731,-10.85109 11.85731,-14.16771 19.48182,-19.57996 46.58433,-16.34109 62.78703,7.50333 8.30805,12.2264 20.23398,25.15569 25.92313,28.10409 5.64436,2.9252 9.22671,2.53365 12.14267,-1.3272 4.43693,-5.87466 5.73546,-12.69055 6.6204,-34.75 0.82671,-20.60802 1.2976,-23.72633 4.53903,-30.05842 4.85701,-9.48807 12.48627,-15.78643 23.73018,-19.59052 9.82319,-3.32342 15.77455,-3.04453 32.27131,1.5123 22.99348,6.35138 36.09881,7.41418 42.36157,3.43538 2.18247,-1.38655 2.32273,-1.95657 1.72753,-7.02076 -1.02239,-8.69895 -7.20765,-21.20181 -16.74089,-33.83999 -2.10011,-2.78411 -5.48027,-8.63411 -7.51147,-13 -3.03276,-6.51866 -3.77236,-9.37631 -4.13639,-15.98222 -0.4031,-7.31479 -0.15509,-8.73656 2.73508,-15.67906 3.658,-8.78691 10.4098,-16.40886 17.87821,-20.18231 2.56994,-1.29847 10.07261,-4.26202 16.67261,-6.58567 14.56181,-5.12676 20.67627,-8.03416 27.08836,-12.88042 8.82017,-6.66629 8.58553,-11.77773 -0.86237,-18.78633 -6.89827,-5.11725 -11.46396,-7.33689 -26.22599,-12.74996 -15.33299,-5.62243 -17.53922,-6.72667 -23.74942,-11.88677 -8.25986,-6.86317 -12.92355,-16.24084 -13.52969,-27.20525 -0.39702,-7.18177 -0.12177,-8.81823 2.69113,-16 1.72337,-4.4 4.4451,-9.8 6.0483,-12 15.52787,-21.30824 21.706,-34.72473 19.68968,-42.75837 -1.00407,-4.00056 -4.09159,-5.14312 -13.65,-5.05129 -9.33418,0.0897 -10.78464,0.37675 -29,5.7399 -14.3665,4.22994 -24.96308,4.88524 -34.44115,2.12989 C 352.34225,121.59009 341.35581,110.16999 337.4883,98.5 336.3455,95.051645 335.56288,87.448583 334.96639,74 334.45647,62.503065 333.49068,52.30163 332.61318,49.143526 330.68897,42.218325 326.59155,36 323.95257,36 c -6.25752,0 -19.87916,11.696185 -30.89043,26.523975 -11.0045,14.818688 -19.73908,21.241428 -31.8816,23.443286 -14.53377,2.635476 -31.6397,-5.114679 -39.3727,-17.838523 -3.46878,-5.707517 -16.15703,-21.403334 -19.7378,-24.416346 -5.56673,-4.684099 -11.80945,-7.873878 -14.74256,-7.532858 -4.06845,0.473021 -8.10144,7.609659 -9.85229,17.434243 -0.77298,4.337423 -1.42111,14.012303 -1.4403,21.499733 -0.055,21.474654 -2.07709,28.39485 -11.21992,38.39856 -3.24436,3.54986 -7.28332,6.57719 -11.62565,8.71382 -6.43576,3.16669 -7.04837,3.27174 -18.6717,3.20195 -10.94494,-0.0657 -13.05477,-0.3991 -23.63725,-3.73512 C 86.125957,113.88916 71,114.72431 71,123.89466 c 0,7.94283 7.171788,22.83532 18.221261,37.83715 C 96.344783,171.40339 99.5,180.54119 99.5,191.5 c 0,8.54746 -0.196153,9.36715 -3.901046,16.30172 -3.925854,7.34815 -10.611881,14.1687 -17.145314,17.49027 -1.675498,0.85182 -8.875498,3.66087 -16,6.24234 -16.354088,5.92569 -23.465105,9.51328 -29.037556,14.64979 -7.413716,6.83372 -5.845281,11.64172 6.340598,19.43693 6.495323,4.15501 11.191132,6.28125 22.07985,9.99767 21.28818,7.26586 29.602598,13.67811 35.214285,27.15799 2.890172,6.9425 3.138183,8.36427 2.735088,15.67906 -0.364729,6.61847 -1.102821,9.46215 -4.164379,16.04423 -2.046594,4.4 -5.658122,10.475 -8.025617,13.5 -13.552923,17.31686 -20.385887,36.55028 -14.345909,40.38085 6.199755,3.9319 19.900134,2.76423 42.18118,-3.59506 12.14881,-3.46743 14.96352,-3.93071 22,-3.62106 10.27525,0.45217 19.4116,4.4812 26.34408,11.61744 8.90918,9.17103 12.16532,19.74805 12.22718,39.71783 0.0449,14.5024 1.34385,24.23376 4.05181,30.35554 3.82809,8.65405 6.98836,9.97641 14.46056,6.05079 z m 52.71534,-169.38902 c -7.14189,-2.01453 -10.53422,-3.88804 -14.84449,-8.19831 -7.82677,-7.82678 -11.67859,-22.309 -9.55924,-35.94121 1.52751,-9.8253 3.94354,-15.14846 9.63909,-21.23746 13.16745,-14.07707 37.19952,-13.18134 47.08387,1.75492 3.49569,5.28234 5.20879,11.41012 6.03437,21.58503 L 286.27504,266 H 261.0016 235.72815 l 0.61916,4.51723 c 1.25117,9.1283 6.40653,15.73825 14.0438,18.00628 6.38644,1.89656 14.64477,1.87863 22.0411,-0.0479 3.21882,-0.8384 5.9608,-1.4009 6.09329,-1.25 0.13249,0.1509 0.68418,2.38975 1.22599,4.97523 l 0.9851,4.70088 -4.6183,1.61768 c -6.6021,2.31256 -22.30441,2.85496 -28.88814,0.99788 z m 24.52068,-49.03561 c -1.34305,-11.91552 -12.50167,-18.53743 -23.49635,-13.94356 -6.26199,2.61642 -10.05723,7.54584 -11.7119,15.21186 l -0.70149,3.25 h 18.20951 18.2095 z M 125,250.5 V 202 h 5.4475 5.4475 l 7.16909,8.25 c 9.46871,10.89634 28.54672,36.28716 38.47719,51.20911 L 189.5,273.41822 189.76263,237.70911 190.02526,202 H 196.51263 203 v 48.5 48.5 h -5.79222 -5.79223 l -3.93772,-6.75 c -9.6747,-16.58426 -41.56492,-61.47663 -47.34974,-66.65499 L 138,223.69002 V 261.34501 299 h -6.5 -6.5 z m 192.5503,43.20964 C 311.61614,280.29147 296,232.0849 296,227.18452 c 0,-0.79783 2.20357,-1.17749 6.75,-1.163 l 6.75,0.0215 3.82402,15.48269 C 317.42555,258.13201 324.89509,282 325.99053,282 c 0.95682,0 8.36253,-23.94656 12.75697,-41.25 L 342.49345,226 h 5.21473 c 5.95478,0 4.65938,-2.38929 9.75901,18 3.23157,12.92045 10.41459,36.19153 11.53212,37.36104 1.27888,1.33837 8.25695,-21.01033 16.11483,-51.61104 l 0.96295,-3.75 h 6.46145 c 3.5538,0 6.46146,0.37515 6.46146,0.83366 0,3.96288 -15.01106,50.71624 -20.76235,64.66634 l -2.88594,7 -5.61494,0.29809 c -4.77738,0.25362 -5.77546,-0.002 -6.69111,-1.71278 C 362.0207,295.17016 350.36094,260.36656 348.27638,253 l -0.99042,-3.5 -1.84326,6.5 c -1.0138,3.575 -4.56931,14.6 -7.90114,24.5 l -6.05787,18 -5.77437,0.30087 -5.77438,0.30088 z"
       id="path424" />
  </g>
</svg>
