<?xml version="1.0" encoding="UTF-8" standalone="no"?>
<!-- Created with Inkscape (http://www.inkscape.org/) -->

<svg
   version="1.1"
   id="svg262"
   width="546.1333"
   height="546.1333"
   viewBox="0 0 546.1333 546.1333"
   sodipodi:docname="trash.svg"
   inkscape:version="1.2.2 (732a01da63, 2022-12-09, custom)"
   xmlns:inkscape="http://www.inkscape.org/namespaces/inkscape"
   xmlns:sodipodi="http://sodipodi.sourceforge.net/DTD/sodipodi-0.dtd"
   xmlns="http://www.w3.org/2000/svg"
   xmlns:svg="http://www.w3.org/2000/svg">
  <defs
     id="defs266" />
  <sodipodi:namedview
     id="namedview264"
     pagecolor="#ffffff"
     bordercolor="#000000"
     borderopacity="0.25"
     inkscape:showpageshadow="2"
     inkscape:pageopacity="0.0"
     inkscape:pagecheckerboard="0"
     inkscape:deskcolor="#d1d1d1"
     showgrid="false"
     inkscape:zoom="0.86748335"
     inkscape:cx="227.0937"
     inkscape:cy="273.78047"
     inkscape:window-width="1600"
     inkscape:window-height="836"
     inkscape:window-x="0"
     inkscape:window-y="27"
     inkscape:window-maximized="1"
     inkscape:current-layer="g268" />
  <g
     inkscape:groupmode="layer"
     inkscape:label="Image"
     id="g268">
    <path
       style="fill:#000000;stroke-width:1.84916"
       d="m 181.77694,523.7656 c -30.47065,-0.79163 -39.92167,-1.63964 -45.4641,-4.07925 -10.6493,-4.68751 -25.18758,-18.96063 -30.96641,-30.40164 L 100.16777,479.03197 99.50906,329.60666 98.850353,180.18134 89.236042,174.71456 C 64.470597,160.63272 59.656652,126.47573 79.694896,107.01613 91.418028,95.6315 100.44257,93.62399 139.89748,93.62399 h 32.49723 v -9.732814 c 0,-19.626352 7.50965,-34.261674 22.23313,-43.329389 l 8.52473,-5.250107 h 67.75556 67.7555 l 8.47476,5.21934 c 15.20985,9.36726 21.85837,20.811023 23.60585,40.631638 l 1.07021,12.139138 36.88859,0.616666 c 39.9099,0.667177 40.54385,0.812765 53.30528,12.241678 13.54312,12.12898 17.71189,34.88658 9.25154,50.50436 -4.34578,8.02221 -14.07103,17.1967 -22.96213,21.66169 l -5.51322,2.76866 -0.55991,149.87968 -0.55993,149.87968 -4.4717,8.20018 c -6.97199,12.78515 -14.39343,20.96516 -25.04322,27.603 l -9.80107,6.10883 -44.14116,1.19415 c -50.05216,1.35407 -119.77741,1.27711 -176.43058,-0.19477 z m 221.14755,-28.52911 c 4.34955,-3.61552 9.77904,-9.97065 12.06556,-14.12249 l 4.15728,-7.54881 0.60651,-146.23636 0.6065,-146.23635 H 271.98372 123.60712 l 0.0522,148.05861 0.0522,148.05862 5.67342,7.28351 c 3.1204,4.00595 9.13479,9.54106 13.36531,12.30024 l 7.69183,5.01675 H 272.72915 395.01622 Z M 194.10787,447.92338 c -2.61759,-2.542 -2.94871,-15.6233 -2.94871,-116.49447 0,-123.73448 -0.37842,-119.35802 10.32045,-119.35802 9.35167,0 9.79597,2.03125 11.24317,51.40102 2.00767,68.48946 0.56032,178.10001 -2.41925,183.21493 -2.84991,4.89239 -11.73273,5.5706 -16.19566,1.23654 z m 70.23267,1.07986 c -2.45321,-1.50601 -2.81465,-16.44276 -2.81465,-116.31666 0,-124.67699 -0.35302,-120.61569 10.48419,-120.61569 10.29492,0 10.15671,-1.64485 10.15671,120.87122 0,109.42875 -0.1048,112.74549 -3.64242,115.25793 -4.18449,2.97187 -10.10501,3.30713 -14.18383,0.8032 z m 70.25627,-0.8028 c -3.53851,-2.5127 -3.64242,-5.84397 -3.64242,-116.77153 0,-110.92756 0.10399,-114.25882 3.64242,-116.77151 4.6199,-3.28061 8.73644,-3.28049 13.35605,3.5e-4 3.53826,2.51289 3.64242,5.84017 3.64242,116.34505 0,121.87921 0.16203,119.78413 -9.25335,119.78413 -2.25649,0 -5.7418,-1.16391 -7.74512,-2.58649 z M 446.51054,150.54086 c 6.21655,-6.75764 7.22482,-15.54358 2.74842,-23.95001 -5.57715,-10.47352 -0.56095,-10.18861 -179.36982,-10.18861 -153.62148,0 -164.59645,0.20784 -169.31018,3.20614 -7.157951,4.55301 -11.336087,13.22237 -9.91579,20.57459 1.932489,10.00367 6.821157,14.18962 18.17633,15.56359 5.54207,0.67061 82.55348,1.11265 171.13648,0.98235 l 161.05998,-0.23695 z M 346.56601,81.79894 C 345.59221,66.947474 341.1514,60.446961 330.75213,58.650509 321.50468,57.05303 219.92684,56.78485 211.93622,58.336818 c -9.03432,1.7547 -15.27059,10.924557 -16.51845,24.28892 l -1.02696,10.998252 h 76.47528 76.47527 z"
       id="path272" />
  </g>
</svg>
