<?xml version="1.0" encoding="UTF-8" standalone="no"?>
<!-- Created with Inkscape (http://www.inkscape.org/) -->

<svg
   version="1.1"
   id="svg213"
   width="512"
   height="512"
   viewBox="0 0 512 512"
   sodipodi:docname="used.svg"
   inkscape:version="1.2.2 (732a01da63, 2022-12-09, custom)"
   xmlns:inkscape="http://www.inkscape.org/namespaces/inkscape"
   xmlns:sodipodi="http://sodipodi.sourceforge.net/DTD/sodipodi-0.dtd"
   xmlns="http://www.w3.org/2000/svg"
   xmlns:svg="http://www.w3.org/2000/svg">
  <defs
     id="defs217" />
  <sodipodi:namedview
     id="namedview215"
     pagecolor="#ffffff"
     bordercolor="#000000"
     borderopacity="0.25"
     inkscape:showpageshadow="2"
     inkscape:pageopacity="0.0"
     inkscape:pagecheckerboard="0"
     inkscape:deskcolor="#d1d1d1"
     showgrid="false"
     inkscape:zoom="1.3085938"
     inkscape:cx="213.20597"
     inkscape:cy="256.38209"
     inkscape:window-width="1600"
     inkscape:window-height="836"
     inkscape:window-x="0"
     inkscape:window-y="27"
     inkscape:window-maximized="1"
     inkscape:current-layer="g219" />
  <g
     inkscape:groupmode="layer"
     inkscape:label="Image"
     id="g219">
    <path
       style="fill:#000000"
       d="M 101,430.02673 V 355 h 15 15 v 30 30 h 11 11 v -30 -30 h 15 15 v 75 75 h -15 -15 v -30 -30 h -10.98512 -10.98512 l -0.26488,29.75 -0.26488,29.75 -14.75,0.27673 -14.75,0.27674 z m 97,18.68337 c 0,-46.72959 0.25395,-57.26489 1.49524,-62.0305 3.83893,-14.73867 13.23671,-24.8617 27.58768,-29.71671 17.95793,-6.07525 38.18188,1.98185 48.29643,19.24102 5.33344,9.10083 5.66209,13.59287 5.3792,73.52311 L 280.5,504.5 265.75,504.77673 251,505.05347 V 482.52673 460 H 239.5 228 v 22.5 22.5 h -15 -15 z m 53,-36.24222 c 0,-19.64456 -0.82702,-23.29283 -5.87156,-25.90146 -3.86963,-2.00106 -9.05934,-2.00355 -11.91165,-0.006 C 228.58919,389.802 228,392.66955 228,411.95034 V 430 H 239.5 251 Z M 296,430 v -75.05347 l 14.67258,0.27674 14.67257,0.27673 15.07743,35.46356 L 355.5,426.42712 355.76263,390.71356 356.02526,355 h 14.99374 14.99373 l -0.25636,74.75 -0.25637,74.75 -14.55488,0.27562 -14.55489,0.27561 L 341.44512,469.8003 326.5,434.54937 326,469.52469 325.5,504.5 310.75,504.77673 296,505.05347 Z m 105,0 v -75 h 23.39466 c 20.49971,0 24.18883,0.24529 29.81241,1.98224 13.12044,4.05249 23.68304,14.98578 27.22432,28.17974 1.49807,5.58145 1.66338,11.23218 1.38487,47.33802 l -0.31626,41 -3.18498,6.72333 c -5.96649,12.59495 -17.04703,21.31637 -30.20151,23.77139 -2.96257,0.5529 -15.00007,1.00528 -26.75,1.00528 H 401 Z m 46.03273,43.48307 C 452.90217,470.44787 453,469.71776 453,428.94966 V 391.8 l -3.4,-3.4 c -3.27018,-3.27018 -3.6902,-3.4 -11,-3.4 H 431 v 45 45 h 6.54966 c 3.89854,0 7.73702,-0.61401 9.48307,-1.51693 z M 191.15819,311.65931 c 0.57619,-19.71764 1.35027,-21.0569 31.88162,-55.15931 13.29497,-14.85 24.77712,-27.9 25.51589,-29 6.15765,-9.16851 -1.57406,-22.50694 -13.0401,-22.49626 -6.92952,0.006 -14.50175,6.65739 -14.51186,12.74626 -0.004,2.23411 -0.11068,2.25 -15.1462,2.25 h -15.14245 l 0.63563,-6.25 c 0.79576,-7.82453 5.92972,-18.59106 11.73832,-24.61666 17.72983,-18.39218 45.83462,-18.89022 63.95467,-1.13334 14.91576,14.61682 17.74455,38.219 6.6681,55.63575 -1.35165,2.12534 -11.9256,14.43925 -23.49767,27.36425 l -21.04014,23.5 25.93964,0.26666 25.93964,0.26665 -0.27664,14.73335 L 280.5,324.5 l -44.86613,0.26038 -44.86613,0.26037 z M 296,250 v -75.05347 l 14.67258,0.27674 14.67257,0.27673 15.07743,35.46356 L 355.5,246.42712 355.76263,210.71356 356.02526,175 h 14.99374 14.99373 l -0.25636,74.75 -0.25637,74.75 -14.55488,0.27562 -14.55489,0.27561 L 341.44512,289.8003 326.5,254.54937 326,289.52469 325.5,324.5 310.75,324.77673 296,325.05347 Z m 105,0 v -75 h 23.39466 c 20.49971,0 24.18883,0.24529 29.81241,1.98224 13.12044,4.05249 23.68304,14.98578 27.22432,28.17974 1.49807,5.58145 1.66338,11.23218 1.38487,47.33802 l -0.31626,41 -3.18498,6.72333 c -5.96649,12.59495 -17.04703,21.31637 -30.20151,23.77139 -2.96257,0.5529 -15.00007,1.00528 -26.75,1.00528 H 401 Z m 46.03273,43.48307 C 452.90217,290.44787 453,289.71776 453,248.94966 V 211.8 l -3.4,-3.4 c -3.27018,-3.27018 -3.6902,-3.4 -11,-3.4 H 431 v 45 45 h 6.54966 c 3.89854,0 7.73702,-0.61401 9.48307,-1.51693 z M 79.596945,198.92336 C 53.70639,195.36808 31.288747,182.74064 15.564451,162.85504 9.4901991,155.17329 1,139.86687 1,136.59775 1,135.15437 6.0718248,135 53.492598,135 H 105.9852 L 106.2426,71.25 106.5,7.5 l 3,0.3499809 c 5.54693,0.647107 18.93918,5.3234301 26.5,9.2533091 11.56501,6.011128 19.35991,12.449462 34.90056,28.826725 L 185.20071,61 h 144.68955 c 155.98238,0 149.93125,-0.192676 160.31487,5.10465 5.92897,3.024733 13.95648,11.463647 17.17807,18.058421 12.09146,24.751919 -2.19328,53.980669 -29.18242,59.711669 C 474.41499,144.67863 431.8416,145 329.13213,145 H 185.3627 l -15.60429,15.89449 c -16.45429,16.76028 -23.80813,22.6881 -35.25841,28.42125 -16.71354,8.36847 -37.472646,12.00115 -54.903055,9.60762 z M 2.0664278,65.75 C 7.2596323,52.367053 19.874366,35.830461 32.018894,26.485461 42.678977,18.282716 56.710205,11.640266 69.75,8.6233764 L 76,7.1773752 V 39.088688 71 H 38.014592 0.0291841 Z"
       id="path223" />
  </g>
</svg>
